<svg xmlns="http://www.w3.org/2000/svg" xmlns:xlink="http://www.w3.org/1999/xlink" width="1920" zoomAndPan="magnify" viewBox="0 0 1440 809.999993" height="1080" preserveAspectRatio="xMidYMid meet" version="1.0"><defs><clipPath id="2292922124"><path d="M 367.425781 292.007812 L 1108.730469 292.007812 L 1108.730469 587 L 367.425781 587 Z M 367.425781 292.007812 " clip-rule="nonzero"/></clipPath><clipPath id="9bea1898e2"><path d="M 342 45 L 1099 45 L 1099 765.933594 L 342 765.933594 Z M 342 45 " clip-rule="nonzero"/></clipPath><clipPath id="52ff48c59e"><path d="M 331.210938 58 L 1091 58 L 1091 755 L 331.210938 755 Z M 331.210938 58 " clip-rule="nonzero"/></clipPath></defs><rect x="-144" width="1728" fill="#ffffff" y="-80.999999" height="971.999992" fill-opacity="1"/><rect x="-144" width="1728" fill="#f4f4f4" y="-80.999999" height="971.999992" fill-opacity="1"/><path fill="#ffffff" d="M 1075.898438 583.046875 C 1075.464844 592.257812 1075.625 597.007812 1076.472656 597.152344 C 1077.0625 597.296875 1077.78125 595.570312 1078.777344 591.972656 C 1082.949219 601.472656 1085.828125 606.078125 1087.570312 605.644531 C 1089.570312 605.070312 1089.859375 597.441406 1088.289062 582.472656 C 1084.101562 582.613281 1080.070312 582.757812 1075.898438 583.046875 Z M 334.058594 617.59375 C 333.339844 620.039062 332.621094 623.636719 332.328125 628.242188 C 332.042969 634.71875 333.046875 641.054688 334.058594 641.054688 C 334.78125 641.054688 334.921875 637.3125 337.796875 632.707031 C 338.953125 630.976562 340.105469 629.683594 340.824219 628.820312 C 341.976562 630.976562 342.835938 631.984375 343.414062 631.839844 C 344.421875 631.554688 344.421875 627.09375 343.414062 618.3125 Z M 469.789062 531.230469 C 471.660156 529.933594 474.105469 528.207031 476.5625 526.191406 C 479.011719 524.03125 479.570312 523.3125 479.441406 522.59375 C 479.285156 520.003906 472.667969 518.5625 472.09375 518.417969 C 479.730469 512.375 481.296875 510.214844 481.011719 509.640625 C 480.449219 508.632812 472.667969 510.789062 468.496094 516.691406 C 465.46875 520.867188 465.183594 525.472656 465.183594 527.773438 C 466.621094 528.925781 468.210938 530.078125 469.789062 531.230469 Z M 391.054688 517.125 C 387.457031 519.140625 384.144531 519.859375 381.988281 520.148438 C 380.261719 520.867188 379.109375 522.304688 378.820312 524.03125 C 378.535156 526.191406 379.828125 528.351562 381.988281 529.214844 L 381.988281 543.320312 C 382.132812 543.609375 383.859375 545.910156 387.023438 546.054688 C 390.335938 546.199219 392.355469 543.464844 392.496094 543.320312 L 392.496094 534.253906 C 395.519531 533.390625 397.101562 531.804688 397.964844 530.796875 C 400.84375 527.34375 400.84375 522.738281 400.699219 515.109375 C 400.699219 512.230469 400.410156 509.925781 400.269531 508.34375 C 398.972656 510.214844 396.242188 514.246094 391.054688 517.125 Z M 826.035156 138.855469 C 824.898438 137.84375 824.304688 136.699219 824.019531 135.976562 C 824.019531 135.683594 823.746094 133.820312 822.019531 132.519531 C 819.988281 131.226562 817.828125 131.945312 817.699219 131.945312 C 816.546875 132.804688 813.800781 134.390625 809.914062 134.824219 C 806.183594 135.257812 803.304688 134.246094 801.996094 133.671875 C 802.285156 135.683594 802.875 139.28125 805.464844 142.882812 C 806.601562 144.613281 809.351562 148.351562 814.519531 149.503906 C 818.707031 150.511719 822.148438 149.21875 823.585938 148.640625 C 824.175781 151.230469 824.738281 153.824219 825.3125 156.269531 C 826.335938 156.269531 829.214844 155.984375 831.375 153.824219 C 834.253906 150.796875 834.539062 145.472656 831.660156 140.871094 C 830.652344 141.015625 828.191406 140.722656 826.035156 138.855469 Z M 1053.757812 669.695312 L 1050.160156 585.925781 L 998.46875 584.917969 L 995.304688 669.554688 L 1003.667969 726.410156 L 1019.5 726.410156 L 1017.46875 664.371094 L 1025.097656 615.433594 L 1034.886719 673.152344 L 1048.128906 718.921875 L 1064.679688 718.921875 Z M 948.96875 176.425781 L 970.402344 135.835938 L 962.199219 131.664062 L 934.578125 170.378906 L 894.402344 164.769531 C 893.554688 164.476562 885.480469 161.746094 880.011719 165.914062 C 874.125 170.527344 872.957031 182.183594 880.730469 191.539062 C 904.625 191.394531 928.375 191.394531 952.28125 191.25 L 993.589844 191.25 L 991.863281 179.164062 Z M 383.007812 648.96875 C 382.863281 649.691406 381.859375 654.582031 380.558594 661.0625 Z M 403.734375 633.136719 C 405.746094 651.417969 407.765625 669.695312 409.777344 687.976562 L 401.578125 753.46875 L 387.902344 753.46875 L 387.902344 691.144531 C 385.457031 681.210938 382.863281 671.28125 380.417969 661.347656 C 377.394531 677.183594 372.640625 702.660156 372.640625 702.660156 L 358.679688 746.847656 L 343.425781 746.847656 L 354.363281 695.03125 L 355.230469 631.699219 C 361.417969 630.113281 370.34375 628.386719 381.277344 628.964844 C 390.496094 629.394531 398.125 631.265625 403.734375 633.136719 Z M 596.324219 66.886719 C 592.132812 64.582031 588.839844 61.992188 586.519531 59.832031 C 586.089844 60.550781 579.769531 70.339844 584.21875 78.691406 C 584.9375 79.984375 586.089844 81.707031 588.117188 83.292969 C 587.527344 87.757812 586.96875 92.078125 586.519531 96.535156 C 586.679688 96.820312 588.679688 100.714844 593 101.140625 C 596.324219 101.574219 599.632812 99.699219 601.359375 96.683594 C 601.203125 92.9375 600.914062 89.050781 600.769531 85.308594 C 601.921875 84.300781 604.238281 82.003906 605.390625 78.257812 C 606.398438 75.089844 606.109375 72.351562 605.808594 71.058594 C 603.074219 70.195312 599.761719 68.902344 596.324219 66.890625 Z M 821.714844 154.828125 C 824.464844 161.886719 827.183594 168.9375 829.933594 175.988281 C 826.753906 177 823.457031 178.007812 820.273438 178.867188 C 807.320312 179.445312 796.667969 180.164062 789.328125 180.738281 C 776.804688 181.746094 765.449219 182.898438 765.289062 181.890625 C 765.289062 181.457031 766.730469 180.886719 768.039062 180.597656 C 761.40625 180.304688 758.09375 179.878906 758.09375 179.300781 C 757.964844 177.859375 774.648438 175.265625 808.039062 171.816406 C 809.625 170.949219 811.507812 169.804688 813.222656 168.21875 C 818.417969 163.328125 820.707031 157.996094 821.714844 154.828125 " fill-opacity="1" fill-rule="nonzero"/><path fill="#0f0e0c" d="M 897.859375 140.4375 C 890.792969 133.390625 881.019531 141.878906 869.203125 135.402344 C 859 129.789062 859.429688 119.566406 850.074219 117.988281 C 844.734375 117.121094 844.160156 120.289062 836.398438 120.867188 C 823.863281 121.875 818.96875 113.957031 810.78125 115.535156 C 806.589844 116.402344 800.832031 119.855469 795.378906 132.808594 L 803.136719 138.566406 C 802.417969 136.699219 802.144531 134.96875 801.984375 133.820312 C 803.292969 134.394531 806.171875 135.402344 809.902344 134.96875 C 813.789062 134.542969 816.535156 132.957031 817.6875 132.089844 C 817.816406 131.949219 819.976562 131.230469 822.007812 132.667969 C 823.734375 133.820312 824.007812 135.835938 824.007812 136.121094 C 824.296875 136.839844 824.886719 137.992188 826.023438 139 C 828.179688 141.019531 830.644531 141.160156 831.492188 141.160156 C 833.363281 144.039062 833.9375 147.347656 833.363281 150.082031 L 834.660156 150.515625 C 836.6875 147.78125 839.410156 147.347656 839.410156 147.347656 C 842.15625 147.203125 845.757812 147.496094 847.914062 149.941406 C 849.195312 151.234375 849.640625 152.820312 849.484375 156.132812 L 878.558594 167.214844 C 888.058594 169.375 897.140625 165.195312 900.453125 157.996094 C 903.171875 152.386719 902.179688 144.757812 897.859375 140.4375 Z M 807.902344 171.53125 Z M 760.242188 178.867188 C 761.554688 179.015625 763.839844 179.300781 768.03125 179.449219 C 768.449219 179.449219 768.878906 179.882812 768.878906 180.308594 C 768.878906 180.742188 768.75 181.027344 768.449219 181.320312 C 771.628906 181.175781 776.953125 180.742188 782.265625 180.308594 C 784.582031 180.167969 786.871094 179.882812 789.1875 179.734375 C 799.265625 179.015625 809.613281 178.296875 820.136719 177.863281 L 828.769531 175.269531 L 821.847656 157.425781 C 819.976562 161.742188 817.257812 165.628906 813.789062 168.652344 C 812.21875 170.09375 810.332031 171.386719 808.332031 172.390625 C 808.175781 172.390625 808.03125 172.539062 808.03125 172.539062 C 775.355469 175.988281 763.839844 177.863281 760.242188 178.867188 Z M 767.597656 183.1875 C 764.847656 183.1875 764.273438 182.761719 764.128906 182.042969 C 764.128906 181.746094 764.128906 181.460938 764.273438 181.320312 C 757.523438 180.886719 756.933594 180.167969 756.933594 179.300781 C 756.804688 177.863281 756.804688 176.136719 807.613281 170.8125 C 809.339844 169.804688 811.054688 168.652344 812.492188 167.355469 C 816.25 164.050781 819.128906 159.585938 820.855469 154.546875 C 820.984375 154.113281 821.285156 153.972656 821.703125 153.972656 C 822.136719 153.972656 822.421875 154.261719 822.566406 154.546875 L 830.773438 175.703125 C 830.929688 175.988281 830.929688 176.285156 830.773438 176.421875 C 830.644531 176.710938 830.484375 176.855469 830.210938 176.855469 L 820.566406 179.734375 L 820.265625 179.734375 C 809.773438 180.167969 799.394531 180.742188 789.316406 181.609375 C 786.871094 181.746094 784.582031 182.042969 782.421875 182.179688 C 774.636719 182.761719 770.1875 183.1875 767.597656 183.1875 " fill-opacity="1" fill-rule="nonzero"/><path fill="#ffffff" d="M 642.933594 567.359375 L 1020.335938 567.359375 C 1038.761719 567.359375 1054.03125 552.246094 1054.03125 533.675781 L 1054.03125 216.582031 C 1054.03125 198.160156 1038.917969 182.898438 1020.335938 182.898438 L 453.226562 182.898438 C 434.808594 182.898438 419.550781 198.015625 419.550781 216.582031 L 419.550781 533.820312 C 419.550781 552.246094 434.664062 567.5 453.230469 567.5 L 607.832031 567.5 M 642.9375 567.359375 L 622.945312 567.359375 " fill-opacity="1" fill-rule="nonzero"/><path fill="#7d9cec" d="M 586.367188 96.539062 C 581.042969 97.117188 570.535156 99.128906 560.171875 106.613281 C 544.769531 117.695312 540.019531 133.242188 538.738281 137.992188 L 538.738281 165.339844 L 561.609375 176.855469 L 627.820312 176.855469 C 635.609375 172.105469 643.222656 167.355469 651.007812 162.609375 C 650.289062 154.832031 649.410156 147.0625 648.691406 139.144531 C 648.402344 136.121094 646.246094 116.835938 629.261719 104.886719 C 617.746094 96.824219 605.667969 96.539062 601.351562 96.683594 C 599.625 99.851562 596.3125 101.574219 592.988281 101.144531 C 588.527344 100.714844 586.511719 96.824219 586.367188 96.539062 Z M 669.128906 625.363281 L 778.824219 625.363281 L 778.824219 558 L 669.132812 558 Z M 879.277344 164.476562 C 869.921875 160.019531 863.027344 155.265625 858.40625 151.523438 C 850.363281 145.191406 844.316406 138.429688 836.53125 139.433594 C 834.527344 139.71875 832.800781 140.441406 831.78125 141.019531 C 834.242188 143.898438 834.800781 147.921875 833.21875 151.234375 C 831.78125 154.113281 828.769531 156.132812 825.445312 156.273438 C 824.886719 153.679688 824.296875 151.097656 823.734375 148.644531 C 822.726562 148.9375 821.703125 149.222656 820.855469 149.511719 C 820.566406 150.515625 820.265625 151.957031 819.976562 153.976562 C 819.128906 160.589844 818.105469 167.648438 821.847656 171.96875 C 822.726562 172.972656 825.015625 174.984375 829.765625 175.566406 C 830.644531 176.136719 831.648438 176.859375 832.644531 177.429688 C 832.644531 175.273438 832.5 164.769531 832.644531 156.992188 C 832.800781 148.355469 839.277344 147.351562 839.277344 147.351562 C 842 147.203125 845.597656 147.496094 847.757812 149.941406 C 850.203125 152.386719 849.640625 155.839844 847.484375 169.660156 C 846.171875 177.144531 845.453125 181.460938 844.878906 184.054688 C 847.195312 185.207031 849.640625 186.214844 852.363281 187.21875 C 862.597656 191.25 871.953125 193.121094 879.148438 194.128906 C 880.429688 191.828125 883.308594 186.359375 883.179688 178.871094 C 883.308594 172.105469 880.589844 166.78125 879.277344 164.476562 Z M 345.417969 227.234375 L 345.417969 360.089844 L 445.597656 360.089844 L 445.597656 262.644531 L 411.339844 227.234375 Z M 982.195312 521.011719 L 510.511719 521.011719 C 501.027344 521.011719 493.238281 513.238281 493.238281 503.738281 L 493.238281 241.917969 C 493.238281 232.417969 501.027344 224.644531 510.511719 224.644531 L 982.195312 224.644531 C 991.695312 224.644531 999.464844 232.417969 999.464844 241.917969 L 999.464844 503.59375 C 999.464844 513.238281 991.695312 521.011719 982.195312 521.011719 " fill-opacity="1" fill-rule="nonzero"/><g clip-path="url(#2292922124)"><path fill="#ffffff" d="M 1108.730469 509.925781 L 1108.730469 308.414062 C 1108.730469 299.636719 1101.660156 292.582031 1092.894531 292.582031 L 798.675781 292.582031 C 789.910156 292.582031 782.839844 299.636719 782.839844 308.414062 L 782.839844 509.925781 C 782.839844 518.707031 789.910156 525.761719 798.675781 525.761719 L 1092.894531 525.761719 C 1101.660156 525.617188 1108.730469 518.5625 1108.730469 509.925781 Z M 600.90625 586.5 L 385.15625 586.5 C 375.503906 586.5 367.585938 578.585938 367.585938 568.941406 L 367.585938 439.542969 C 367.585938 429.898438 375.503906 421.980469 385.152344 421.980469 L 600.898438 421.980469 C 610.542969 421.980469 618.460938 429.898438 618.460938 439.542969 L 618.460938 568.941406 C 618.460938 578.585938 610.699219 586.5 600.898438 586.5 " fill-opacity="1" fill-rule="nonzero"/></g><path fill="#ffffff" d="M 596.023438 324.679688 L 526.933594 324.679688 C 521.738281 324.679688 517.421875 320.363281 517.421875 315.179688 L 517.421875 309.132812 C 517.421875 303.953125 521.738281 299.636719 526.933594 299.636719 L 596.023438 299.636719 C 601.191406 299.636719 605.511719 303.953125 605.511719 309.132812 L 605.511719 315.179688 C 605.511719 320.503906 601.191406 324.679688 596.023438 324.679688 Z M 726.289062 480.417969 L 624.941406 480.417969 L 624.941406 465.019531 L 726.289062 465.019531 Z M 772.191406 434.214844 L 624.941406 434.214844 C 624.511719 432.058594 623.214844 427.019531 618.898438 422.558594 C 612.707031 416.078125 604.660156 415.648438 602.917969 415.648438 L 534.980469 415.648438 L 534.980469 403.125 L 549.964844 403.125 C 556.859375 391.753906 568.808594 375.921875 586.800781 372.609375 C 611.425781 368.148438 622.941406 391.753906 647.410156 388.011719 C 676.472656 383.40625 680.949219 347.132812 704.539062 348.140625 C 724.546875 349.003906 732.894531 375.632812 752.484375 373.042969 C 761.554688 371.890625 768.316406 364.839844 772.191406 359.511719 Z M 976.867188 248.394531 C 976.867188 252.855469 973.269531 256.453125 968.824219 256.453125 C 964.347656 256.453125 960.746094 252.855469 960.746094 248.394531 C 960.746094 243.929688 964.347656 240.332031 968.824219 240.332031 C 973.269531 240.332031 976.867188 243.929688 976.867188 248.394531 Z M 935.125 240.332031 C 930.679688 240.332031 927.082031 243.929688 927.082031 248.394531 C 927.082031 252.855469 930.679688 256.453125 935.125 256.453125 C 939.601562 256.453125 943.203125 252.855469 943.203125 248.394531 C 943.203125 243.929688 939.601562 240.332031 935.125 240.332031 Z M 906.050781 248.394531 C 906.050781 252.855469 902.453125 256.453125 897.992188 256.453125 C 893.542969 256.453125 889.945312 252.855469 889.945312 248.394531 C 889.945312 243.929688 893.542969 240.332031 897.992188 240.332031 C 902.453125 240.332031 906.050781 243.929688 906.050781 248.394531 " fill-opacity="1" fill-rule="nonzero"/><path fill="#0f0e0c" d="M 478.125 550.804688 L 463.164062 550.804688 L 463.164062 506.472656 L 478.125 506.472656 Z M 452.65625 553.109375 L 437.6875 553.109375 L 437.6875 481.285156 L 452.65625 481.285156 Z M 426.171875 552.386719 L 411.203125 552.386719 L 411.203125 497.835938 L 426.171875 497.835938 Z M 1056.617188 473.511719 C 1054.460938 482.003906 1046.382812 488.480469 1036.597656 489.199219 C 1036.597656 487.472656 1036.597656 485.746094 1036.753906 483.875 C 1036.882812 482.148438 1037.1875 480.5625 1037.605469 479.125 C 1037.90625 478.835938 1041.632812 475.671875 1041.074219 470.777344 C 1040.625 467.753906 1038.914062 466.027344 1038.195312 465.304688 C 1037.472656 465.449219 1034.003906 466.027344 1030.839844 463.867188 C 1026.808594 461.277344 1026.390625 456.8125 1026.234375 456.238281 C 1024.953125 456.957031 1023.082031 458.253906 1021.195312 460.125 L 1021.195312 447.171875 C 1022.359375 446.738281 1036.035156 442.566406 1046.960938 451.199219 C 1048.398438 452.207031 1059.625 461.277344 1056.617188 473.511719 Z M 918.136719 460.554688 L 918.136719 414.207031 C 932.113281 421.835938 946.074219 429.320312 959.878906 436.949219 C 945.917969 444.867188 931.953125 452.640625 918.136719 460.554688 Z M 802.855469 372.609375 L 802.855469 506.761719 L 1070.710938 506.761719 L 1070.710938 372.609375 L 802.855469 372.609375 " fill-opacity="1" fill-rule="nonzero"/><path fill="#7d9cec" d="M 604.503906 480.417969 L 556.730469 480.417969 L 556.730469 486.898438 L 604.503906 486.898438 Z M 524.054688 467.898438 C 514.699219 467.898438 507.070312 475.527344 507.070312 484.882812 C 507.070312 494.238281 514.699219 501.867188 524.054688 501.867188 C 533.414062 501.867188 541.027344 494.238281 541.027344 484.882812 C 541.027344 475.527344 533.414062 467.898438 524.054688 467.898438 Z M 451.789062 428.027344 C 448.339844 428.027344 445.605469 430.761719 445.605469 434.214844 C 445.605469 437.671875 448.339844 440.40625 451.789062 440.40625 C 455.25 440.40625 457.980469 437.671875 457.980469 434.214844 C 457.980469 430.761719 455.101562 428.027344 451.789062 428.027344 Z M 427.320312 428.027344 C 423.871094 428.027344 421.136719 430.761719 421.136719 434.214844 C 421.136719 437.671875 423.871094 440.40625 427.320312 440.40625 C 430.78125 440.40625 433.511719 437.671875 433.511719 434.214844 C 433.511719 430.761719 430.632812 428.027344 427.320312 428.027344 Z M 401.703125 427.882812 C 398.246094 427.882812 395.515625 430.617188 395.515625 434.070312 C 395.515625 437.527344 398.246094 440.261719 401.703125 440.261719 C 405.15625 440.261719 407.890625 437.527344 407.890625 434.070312 C 407.75 430.617188 405.011719 427.882812 401.703125 427.882812 Z M 1043.074219 346.125 L 855.667969 346.125 L 855.667969 354.332031 L 1043.074219 354.332031 Z M 966.5 325.6875 L 855.667969 325.6875 L 855.667969 335.90625 L 966.5 335.90625 Z M 817.25 321.945312 C 809.335938 321.945312 802.988281 328.421875 802.988281 336.195312 C 802.988281 344.113281 809.464844 350.445312 817.25 350.445312 C 825.007812 350.445312 831.484375 343.96875 831.484375 336.195312 C 831.484375 328.421875 825.167969 321.945312 817.25 321.945312 Z M 607.820312 548.359375 L 512.378906 548.359375 L 512.378906 556.996094 L 607.820312 556.996094 Z M 607.820312 532.238281 L 512.378906 532.238281 L 512.378906 540.875 L 607.820312 540.875 Z M 607.820312 524.609375 L 512.378906 524.609375 L 512.378906 515.972656 L 607.820312 515.972656 L 607.820312 524.609375 " fill-opacity="1" fill-rule="nonzero"/><path fill="#ffffff" d="M 993.578125 451.058594 C 1003.207031 446.738281 1007.972656 444.003906 1007.527344 442.996094 C 1007.253906 442.277344 1004.9375 442.277344 1000.488281 442.996094 C 1000.058594 430.1875 998.890625 423.566406 996.890625 423.277344 C 994.574219 422.988281 991.261719 430.761719 986.8125 446.449219 Z M 1027.835938 464.011719 C 1030.84375 465.882812 1033.882812 465.449219 1034.601562 465.304688 C 1035.164062 465.882812 1036.890625 467.464844 1037.191406 470.199219 C 1037.753906 474.519531 1034.3125 477.542969 1034.011719 477.828125 C 1033.722656 479.125 1033.4375 480.5625 1033.292969 482.148438 C 1032.714844 487.328125 1033.59375 491.789062 1034.601562 494.8125 C 1033.003906 497.980469 1029.691406 499.277344 1027.117188 498.410156 C 1024.800781 497.546875 1023.9375 495.246094 1023.804688 494.8125 L 1023.804688 488.046875 C 1017.601562 487.90625 1014.882812 484.882812 1014.292969 484.164062 C 1009.414062 478.546875 1013.285156 469.046875 1016.164062 464.441406 C 1018.769531 460.414062 1022.078125 458.109375 1023.9375 456.957031 C 1023.804688 457.535156 1024.238281 461.707031 1027.835938 464.011719 " fill-opacity="1" fill-rule="nonzero"/><path fill="#ffffff" d="M 561.609375 176.855469 C 555.132812 178.582031 543.328125 183.046875 537.011719 193.984375 C 533.972656 199.3125 532.980469 204.78125 533.253906 224.210938 C 533.414062 234.144531 533.972656 247.097656 535.269531 262.5 C 542.179688 263.21875 548.941406 263.792969 555.851562 264.515625 L 560.457031 211.113281 L 596.441406 187.078125 L 628.410156 205.644531 L 629.261719 264.515625 L 651.007812 265.953125 C 652.722656 249.6875 654.015625 235.296875 655.039062 223.203125 C 656.175781 207.515625 656.480469 200.75 653.011719 193.265625 C 648.128906 182.613281 639.046875 176.710938 633.289062 173.691406 L 627.820312 176.855469 Z M 848.042969 149.941406 C 850.492188 152.535156 849.914062 155.839844 847.757812 169.660156 C 845.324219 184.773438 844.878906 186.785156 842.574219 188.804688 C 839.410156 191.539062 834.960938 191.394531 826.167969 191.105469 C 811.628906 190.53125 808.621094 186.933594 797.105469 188.085938 C 793.347656 188.519531 788.597656 189.378906 788.46875 188.804688 C 788.3125 188.371094 790.757812 187.21875 792.917969 186.359375 C 782.121094 185.347656 776.667969 184.488281 776.667969 183.765625 C 776.667969 183.046875 782.984375 182.613281 795.664062 182.328125 L 832.929688 177.863281 C 832.929688 177.863281 832.800781 165.773438 832.929688 157.136719 C 833.089844 148.503906 839.566406 147.496094 839.566406 147.496094 C 842.289062 147.347656 845.886719 147.636719 848.042969 149.941406 " fill-opacity="1" fill-rule="nonzero"/><path fill="#0f0e0c" d="M 891.816406 241.339844 C 887.914062 241.339844 884.75 244.507812 884.75 248.394531 C 884.75 252.28125 887.914062 255.445312 891.816406 255.445312 C 895.703125 255.445312 898.855469 252.28125 898.855469 248.394531 C 899.011719 244.507812 895.703125 241.339844 891.816406 241.339844 Z M 891.816406 257.460938 C 886.777344 257.460938 882.746094 253.429688 882.746094 248.394531 C 882.746094 243.355469 886.777344 239.324219 891.816406 239.324219 C 896.855469 239.324219 900.871094 243.355469 900.871094 248.394531 C 900.871094 253.429688 896.855469 257.460938 891.816406 257.460938 " fill-opacity="1" fill-rule="nonzero"/><path fill="#0f0e0c" d="M 928.9375 241.339844 C 925.050781 241.339844 921.882812 244.507812 921.882812 248.394531 C 921.882812 252.28125 925.050781 255.445312 928.9375 255.445312 C 932.839844 255.445312 936.003906 252.28125 936.003906 248.394531 C 936.132812 244.507812 932.839844 241.339844 928.9375 241.339844 Z M 928.9375 257.460938 C 923.898438 257.460938 919.882812 253.429688 919.882812 248.394531 C 919.882812 243.355469 923.898438 239.324219 928.9375 239.324219 C 933.976562 239.324219 938.003906 243.355469 938.003906 248.394531 C 938.003906 253.429688 933.976562 257.460938 928.9375 257.460938 " fill-opacity="1" fill-rule="nonzero"/><path fill="#0f0e0c" d="M 962.632812 241.339844 C 958.746094 241.339844 955.566406 244.507812 955.566406 248.394531 C 955.566406 252.28125 958.746094 255.445312 962.632812 255.445312 C 966.503906 255.445312 969.671875 252.28125 969.671875 248.394531 C 969.828125 244.507812 966.664062 241.339844 962.632812 241.339844 Z M 962.632812 257.460938 C 957.59375 257.460938 953.550781 253.429688 953.550781 248.394531 C 953.550781 243.355469 957.59375 239.324219 962.632812 239.324219 C 967.671875 239.324219 971.699219 243.355469 971.699219 248.394531 C 971.699219 253.429688 967.671875 257.460938 962.632812 257.460938 " fill-opacity="1" fill-rule="nonzero"/><g clip-path="url(#9bea1898e2)"><path fill="#0f0e0c" d="M 997.738281 568.367188 C 997.738281 567.789062 997.738281 567.070312 997.898438 566.496094 L 778.667969 566.496094 C 778.667969 567.070312 778.667969 567.789062 778.523438 568.367188 L 779.832031 568.367188 C 779.960938 568.941406 780.105469 569.371094 780.265625 569.949219 L 787.878906 569.949219 L 787.878906 635.441406 L 680.070312 635.441406 L 680.070312 626.660156 C 679.507812 626.660156 678.789062 626.515625 678.199219 626.515625 L 678.199219 636.449219 C 678.199219 637.023438 678.628906 637.457031 679.207031 637.457031 L 788.902344 637.457031 C 789.460938 637.457031 789.910156 637.023438 789.910156 636.449219 L 789.910156 569.085938 C 789.910156 568.796875 789.75 568.652344 789.621094 568.507812 L 997.738281 568.507812 Z M 1003.496094 726.410156 C 989.390625 731.015625 982.496094 734.324219 982.785156 736.195312 C 983.214844 738.644531 995.449219 739.074219 1019.488281 737.203125 C 1019.328125 733.605469 1019.328125 730.007812 1019.199219 726.410156 Z M 1035.035156 465.449219 C 1035.59375 466.027344 1037.320312 467.609375 1037.609375 470.34375 C 1038.199219 474.664062 1034.730469 477.683594 1034.441406 477.972656 C 1034.15625 479.269531 1033.882812 480.707031 1033.722656 482.292969 C 1033.59375 484.019531 1033.59375 485.601562 1033.59375 487.183594 C 1042.519531 486.609375 1049.84375 480.707031 1051.875 472.933594 C 1054.59375 461.851562 1044.390625 453.648438 1043.078125 452.496094 C 1033.164062 444.578125 1020.769531 448.464844 1019.617188 448.898438 L 1019.617188 460.699219 C 1021.359375 458.972656 1023.085938 457.820312 1024.078125 457.246094 C 1024.078125 457.820312 1024.527344 461.851562 1028.253906 464.300781 C 1031.277344 466.027344 1034.3125 465.59375 1035.035156 465.449219 Z M 627.101562 542.746094 C 626.539062 542.746094 626.09375 543.175781 626.09375 543.753906 C 626.09375 544.328125 626.539062 544.761719 627.101562 544.761719 L 996.730469 544.761719 C 1003.929688 544.761719 1010.5625 541.59375 1015.171875 535.980469 C 1015.445312 535.546875 1015.445312 534.972656 1015.011719 534.683594 C 1014.578125 534.394531 1014.003906 534.394531 1013.730469 534.828125 C 1009.542969 540.011719 1003.367188 542.886719 996.890625 542.886719 L 627.101562 542.886719 Z M 778.824219 558.003906 L 669.132812 558.003906 L 723.972656 588.804688 Z M 510.082031 520.003906 L 603.640625 520.003906 L 603.640625 513.238281 L 510.082031 513.238281 Z M 508.222656 521.011719 L 508.222656 512.375 C 508.222656 511.796875 508.640625 511.367188 509.230469 511.367188 L 604.660156 511.367188 C 605.222656 511.367188 605.667969 511.796875 605.667969 512.375 L 605.667969 521.011719 C 605.667969 521.585938 605.222656 522.019531 604.660156 522.019531 L 509.230469 522.019531 C 508.640625 522.019531 508.222656 521.585938 508.222656 521.011719 Z M 959.882812 322.953125 L 850.921875 322.953125 L 850.921875 331.300781 L 959.882812 331.300781 Z M 961.753906 321.082031 L 961.753906 333.171875 L 849.050781 333.171875 L 849.050781 321.082031 Z M 1047.683594 718.921875 C 1036.890625 728.566406 1032.15625 734.324219 1033.4375 736.195312 C 1035.035156 738.644531 1045.527344 735.332031 1065.101562 726.410156 C 1064.382812 723.960938 1063.664062 721.371094 1062.941406 718.921875 Z M 510.082031 552.53125 L 603.640625 552.53125 L 603.640625 545.765625 L 510.082031 545.765625 Z M 508.222656 544.761719 C 508.222656 544.183594 508.640625 543.753906 509.230469 543.753906 L 604.660156 543.753906 C 605.222656 543.753906 605.667969 544.183594 605.667969 544.761719 L 605.667969 553.394531 C 605.667969 553.972656 605.222656 554.402344 604.660156 554.402344 L 509.230469 554.402344 C 508.640625 554.402344 508.222656 553.972656 508.222656 553.394531 Z M 1065.101562 533.675781 L 1054.03125 533.675781 C 1054.164062 534.253906 1054.03125 534.972656 1053.746094 535.546875 L 1065.820312 535.546875 C 1065.390625 535.117188 1065.261719 534.683594 1065.261719 534.109375 C 1065.261719 533.964844 1065.101562 533.820312 1065.101562 533.675781 Z M 510.082031 536.265625 L 603.640625 536.265625 L 603.640625 529.503906 L 510.082031 529.503906 Z M 508.222656 528.640625 C 508.222656 528.0625 508.640625 527.632812 509.230469 527.632812 L 604.660156 527.632812 C 605.222656 527.632812 605.667969 528.0625 605.667969 528.640625 L 605.667969 537.273438 C 605.667969 537.851562 605.222656 538.28125 604.660156 538.28125 L 509.230469 538.28125 C 508.640625 538.28125 508.222656 537.851562 508.222656 537.273438 Z M 772.191406 520.003906 C 771.628906 517.988281 771.328125 515.972656 771.328125 513.8125 L 771.328125 374.195312 C 765.570312 381.101562 759.394531 385.132812 752.613281 385.996094 C 741.964844 387.4375 734.492188 380.527344 727.296875 373.90625 C 720.660156 367.859375 713.894531 361.527344 704.699219 361.238281 C 693.601562 360.808594 686.835938 369.011719 679.207031 378.511719 C 671.59375 388.011719 662.796875 398.808594 647.84375 401.109375 C 635.449219 403.125 626.09375 398.085938 617.183594 393.195312 C 607.957031 388.15625 599.191406 383.550781 587.085938 385.710938 C 573.84375 388.15625 562.042969 397.800781 551.691406 414.640625 L 603.0625 414.640625 C 615.746094 414.640625 626.09375 425.003906 626.09375 437.671875 L 626.09375 520.148438 L 772.191406 520.148438 Z M 624.09375 438.679688 C 624.09375 426.445312 614.148438 416.511719 601.914062 416.511719 L 397.523438 416.511719 C 385.152344 416.511719 375.074219 426.585938 375.074219 438.964844 L 375.074219 451.921875 L 624.085938 451.921875 Z M 452.9375 368.003906 L 452.9375 271.855469 L 452.503906 271.421875 L 419.546875 271.421875 L 419.546875 237.308594 L 419.113281 236.878906 L 354.625 236.878906 L 354.625 367.859375 L 452.9375 367.859375 Z M 1098.925781 322.234375 L 1098.925781 513.8125 C 1098.925781 523.3125 1092.738281 531.375 1084.261719 534.394531 C 1084.390625 533.675781 1084.390625 533.101562 1084.101562 532.382812 C 1091.585938 529.503906 1097.054688 522.304688 1097.054688 513.8125 L 1097.054688 322.234375 C 1097.054688 311.292969 1088.132812 302.371094 1077.191406 302.371094 L 793.0625 302.371094 C 782.121094 302.371094 773.199219 311.292969 773.199219 322.234375 L 773.199219 513.8125 C 773.199219 524.753906 782.121094 533.675781 793.0625 533.675781 L 997.453125 533.675781 C 997.179688 534.253906 997.179688 534.972656 997.308594 535.546875 L 793.0625 535.546875 C 783.863281 535.546875 775.945312 529.789062 772.765625 521.730469 C 772.636719 521.875 772.476562 521.875 772.191406 521.875 L 625.949219 521.875 L 625.949219 556.996094 C 625.949219 560.304688 625.230469 563.472656 624.09375 566.351562 L 668.84375 566.351562 C 668.714844 566.925781 668.714844 567.644531 668.714844 568.222656 L 623.214844 568.222656 C 619.183594 575.851562 611.269531 580.886719 602.070312 580.886719 L 405.007812 580.886719 C 404.4375 580.886719 404.003906 580.457031 404.003906 579.878906 C 404.003906 579.304688 404.4375 578.871094 405.011719 578.871094 L 601.917969 578.871094 C 614.152344 578.871094 624.097656 568.941406 624.097656 556.707031 L 624.097656 453.503906 L 375.085938 453.503906 L 375.082031 502.875 C 377.8125 501.003906 381.414062 499.132812 385.875 498.269531 C 396.671875 496.539062 404.441406 502.152344 405.882812 503.160156 L 400.695312 512.519531 L 400.558594 512.660156 C 400.410156 510.789062 400.269531 509.207031 400.125 507.910156 C 398.972656 509.925781 396.09375 513.957031 391.054688 516.835938 C 387.457031 518.851562 384.144531 519.570312 381.984375 519.859375 C 380.257812 520.578125 379.105469 522.019531 378.820312 523.746094 C 378.535156 525.902344 379.824219 528.0625 381.984375 528.925781 L 381.984375 535.980469 C 380.546875 535.261719 377.667969 533.53125 374.933594 530.652344 L 374.933594 542.886719 C 374.933594 543.464844 374.5 543.894531 373.929688 543.894531 C 373.347656 543.894531 372.921875 543.464844 372.921875 542.886719 L 372.921875 530.941406 C 372.921875 530.367188 373.347656 529.933594 373.929688 529.933594 C 374.070312 529.933594 374.214844 529.933594 374.359375 530.078125 C 373.496094 529.070312 372.628906 527.917969 371.769531 526.480469 C 366.871094 518.273438 368.746094 509.925781 369.324219 508.054688 C 369.898438 507.335938 371.191406 505.753906 373.210938 504.027344 C 373.0625 503.882812 372.921875 503.59375 372.921875 503.449219 L 372.921875 438.390625 C 372.921875 425.148438 383.714844 414.351562 396.957031 414.351562 L 418.6875 414.351562 L 418.6875 369.730469 L 353.628906 369.730469 C 353.058594 369.730469 352.625 369.300781 352.625 368.726562 L 352.625 235.871094 C 352.625 235.296875 353.058594 234.863281 353.628906 234.863281 L 419.554688 234.863281 C 419.84375 234.863281 419.988281 235.007812 420.273438 235.152344 L 454.535156 270.558594 C 454.671875 270.703125 454.820312 270.992188 454.820312 271.277344 L 454.820312 368.726562 C 454.820312 369.300781 454.386719 369.730469 453.8125 369.730469 L 420.5625 369.730469 L 420.5625 414.351562 L 492.238281 414.351562 L 492.238281 246.808594 C 492.238281 234.144531 502.601562 223.78125 515.265625 223.78125 L 533.257812 223.78125 C 533.257812 224.355469 533.417969 225.074219 533.546875 225.652344 L 515.84375 225.652344 C 503.910156 225.652344 494.121094 235.4375 494.121094 247.386719 L 494.121094 270.558594 L 517.582031 270.558594 C 521.902344 268.542969 528.941406 265.953125 538.742188 262.785156 C 543.335938 263.21875 547.8125 263.652344 552.417969 264.082031 C 552.128906 266.816406 551.96875 269.550781 551.695312 272.285156 C 551.828125 271.710938 551.96875 271.136719 552.128906 270.558594 L 631.710938 270.558594 L 631.710938 264.65625 C 636.75 264.945312 641.789062 265.378906 646.824219 265.664062 C 655.460938 268.257812 661.652344 270.273438 665.40625 272 C 664.6875 271.421875 663.96875 270.992188 662.960938 270.558594 L 998.332031 270.558594 L 998.332031 247.386719 C 998.332031 235.4375 988.546875 225.652344 976.585938 225.652344 L 655.171875 225.652344 C 655.332031 225.074219 655.332031 224.355469 655.332031 223.78125 L 978.023438 223.78125 C 990.417969 223.78125 1000.492188 233.855469 1000.492188 246.234375 L 1000.492188 292.582031 C 1000.492188 293.15625 1000.0625 293.589844 999.472656 293.589844 C 998.894531 293.589844 998.464844 293.15625 998.464844 292.582031 L 998.464844 272.574219 L 666.558594 272.574219 C 668.71875 273.726562 669.855469 274.589844 669.726562 275.308594 C 669.277344 277.757812 656.613281 278.042969 631.710938 276.460938 L 631.710938 272.574219 L 551.695312 272.574219 C 551.695312 273.148438 551.539062 273.726562 551.539062 274.300781 C 525.789062 277.035156 512.675781 277.324219 512.113281 274.878906 C 511.957031 274.300781 512.675781 273.582031 513.984375 272.574219 L 493.964844 272.574219 L 493.964844 414.785156 L 549.089844 414.785156 C 559.886719 396.9375 572.410156 386.574219 586.515625 383.980469 C 599.324219 381.679688 608.679688 386.714844 617.75 391.609375 C 626.816406 396.503906 635.308594 401.109375 647.128906 399.238281 C 661.363281 396.9375 669.566406 387.003906 677.355469 377.21875 C 684.96875 367.71875 692.308594 358.792969 704.398438 359.226562 C 714.347656 359.65625 721.382812 366.132812 728.292969 372.46875 C 735.648438 379.089844 742.414062 385.421875 752.203125 384.125 C 758.964844 383.261719 765.285156 378.800781 771.199219 371.171875 L 771.199219 322.234375 C 771.199219 310.285156 780.988281 300.5 792.921875 300.5 L 1018.328125 300.5 L 1018.328125 224.066406 C 1018.328125 211.976562 1008.539062 202.1875 996.460938 202.1875 L 656.179688 202.1875 C 656.179688 201.613281 656.050781 200.894531 655.894531 200.316406 L 996.734375 200.316406 C 998.175781 200.316406 999.613281 200.460938 1000.910156 200.75 C 999.054688 199.3125 996.460938 195.136719 993.136719 188.371094 C 992.707031 185.347656 992.273438 182.179688 991.855469 179.164062 L 1002.941406 179.164062 C 1004.652344 192.832031 1004.507812 200.175781 1002.652344 201.183594 C 1012.855469 203.773438 1020.34375 213.128906 1020.34375 224.066406 L 1020.34375 300.5 L 1077.195312 300.5 C 1089.300781 300.5 1098.929688 310.285156 1098.929688 322.234375 Z M 413.511719 758.074219 C 410.488281 757.355469 406.457031 756.058594 401.710938 753.324219 L 388.035156 753.324219 L 388.035156 765.558594 C 399.121094 765.558594 410.347656 765.414062 421.429688 765.414062 C 421.429688 764.265625 421.28125 762.679688 420.421875 761.386719 C 418.835938 758.9375 415.957031 758.648438 413.511719 758.074219 Z M 850.921875 349.582031 L 1036.472656 349.582031 L 1036.472656 343.246094 L 850.921875 343.246094 Z M 849.050781 341.519531 L 1038.328125 341.519531 L 1038.328125 351.597656 L 849.050781 351.597656 Z M 584.925781 79.988281 C 584.640625 79.554688 584.351562 79.128906 584.207031 78.695312 C 579.761719 70.34375 586.078125 60.554688 586.511719 59.835938 C 588.957031 61.996094 592.125 64.585938 596.3125 66.894531 C 599.753906 68.757812 603.0625 70.058594 605.667969 70.917969 C 605.941406 72.355469 606.101562 75.097656 605.222656 78.113281 C 604.503906 80.421875 603.351562 82.292969 602.34375 83.585938 C 603.640625 82.867188 612.867188 77.542969 614.304688 66.894531 C 615.023438 61.273438 614.148438 50.625 605.941406 47.027344 C 600.042969 44.4375 592.425781 46.308594 587.085938 51.777344 C 585.949219 51.488281 579.472656 50.480469 575.15625 54.363281 C 569.398438 59.550781 570.679688 70.058594 576.003906 75.53125 C 579.171875 78.695312 583.070312 79.699219 584.925781 79.988281 Z M 560.171875 225.652344 L 628.828125 225.652344 L 628.828125 223.78125 L 560.457031 223.78125 C 560.457031 224.355469 560.328125 225.074219 560.171875 225.652344 Z M 1020.335938 183.90625 C 1038.328125 183.90625 1053.027344 198.589844 1053.027344 216.582031 L 1053.027344 293.015625 L 1054.882812 293.015625 L 1054.882812 216.582031 C 1054.882812 197.582031 1039.351562 182.042969 1020.335938 182.042969 L 1003.367188 182.042969 C 1003.496094 182.613281 1003.496094 183.332031 1003.496094 183.90625 Z M 994.730469 128.785156 C 994.574219 126.910156 985.074219 125.757812 966.074219 125.324219 L 963.195312 132.234375 L 970.390625 135.835938 C 986.816406 132.957031 994.859375 130.511719 994.730469 128.785156 Z M 647.84375 183.480469 C 647.972656 183.621094 647.972656 183.765625 648.128906 183.90625 L 752.195312 183.90625 L 755.636719 191.539062 L 796.945312 191.539062 L 796.945312 188.371094 L 791.347656 187.21875 L 758.242188 187.21875 L 742.121094 149.222656 L 736.652344 149.222656 L 751.175781 181.894531 L 646.820312 181.894531 C 647.253906 182.46875 647.539062 182.898438 647.84375 183.480469 Z M 627.820312 176.855469 L 633.289062 138.566406 L 555.851562 138.566406 L 561.609375 176.855469 Z M 368.171875 753.324219 C 365.726562 752.460938 362.269531 750.589844 358.816406 746.847656 L 343.414062 746.847656 L 342.117188 759.515625 C 353.492188 760.664062 364.714844 761.960938 376.089844 763.113281 C 376.230469 761.097656 376.230469 758.507812 374.503906 756.492188 C 372.777344 754.476562 370.765625 754.1875 368.171875 753.324219 Z M 420.5625 216.582031 C 420.5625 198.589844 435.242188 183.90625 453.234375 183.90625 L 545.222656 183.90625 C 546.070312 183.1875 546.789062 182.613281 547.8125 182.042969 L 453.234375 182.042969 C 434.238281 182.042969 418.691406 197.582031 418.691406 216.582031 L 418.691406 234.289062 C 419.410156 234.574219 419.988281 235.007812 420.5625 235.582031 Z M 469.070312 224.210938 L 469.070312 413.488281 C 469.070312 414.066406 469.5 414.496094 470.082031 414.496094 C 470.65625 414.496094 471.085938 414.066406 471.085938 413.488281 L 471.085938 224.210938 C 471.085938 212.121094 480.882812 202.332031 492.957031 202.332031 L 534.136719 202.332031 C 534.265625 201.757812 534.425781 201.039062 534.554688 200.460938 L 492.957031 200.460938 C 479.730469 200.460938 469.066406 211.113281 469.066406 224.210938 Z M 619.914062 201.324219 C 619.914062 201.613281 619.785156 202.046875 619.785156 202.332031 L 575.453125 202.332031 C 576.171875 201.757812 576.890625 201.183594 577.453125 200.460938 L 618.761719 200.460938 C 619.066406 200.75 619.484375 201.039062 619.914062 201.324219 Z M 628.261719 223.78125 L 560.179688 223.78125 L 560.179688 225.652344 L 628.117188 225.652344 C 628.117188 225.074219 628.117188 224.355469 628.261719 223.78125 Z M 440.710938 345.40625 L 440.710938 343.679688 C 440.710938 342.242188 439.558594 341.089844 438.121094 341.089844 L 368.746094 341.089844 C 367.304688 341.089844 366.152344 342.242188 366.152344 343.679688 L 366.152344 345.40625 C 366.152344 346.847656 367.304688 347.996094 368.746094 347.996094 L 438.121094 347.996094 C 439.558594 347.996094 440.710938 346.847656 440.710938 345.40625 Z M 440.710938 326.550781 L 440.710938 324.824219 C 440.710938 323.382812 439.558594 322.234375 438.121094 322.234375 L 368.746094 322.234375 C 367.304688 322.234375 366.152344 323.382812 366.152344 324.824219 L 366.152344 326.550781 C 366.152344 327.992188 367.304688 329.140625 368.746094 329.140625 L 438.121094 329.140625 C 439.558594 329.285156 440.710938 327.992188 440.710938 326.550781 Z M 440.710938 307.839844 L 440.710938 306.113281 C 440.710938 304.671875 439.558594 303.519531 438.121094 303.519531 L 368.746094 303.519531 C 367.304688 303.519531 366.152344 304.671875 366.152344 306.113281 L 366.152344 307.839844 C 366.152344 309.277344 367.304688 310.429688 368.746094 310.429688 L 438.121094 310.429688 C 439.558594 310.574219 440.710938 309.277344 440.710938 307.839844 Z M 440.710938 290.855469 L 440.710938 289.128906 C 440.710938 287.6875 439.558594 286.535156 438.121094 286.535156 L 368.746094 286.535156 C 367.304688 286.535156 366.152344 287.6875 366.152344 289.128906 L 366.152344 290.855469 C 366.152344 292.292969 367.304688 293.445312 368.746094 293.445312 L 438.121094 293.445312 C 439.558594 293.445312 440.710938 292.292969 440.710938 290.855469 Z M 402.714844 263.21875 L 368.746094 263.21875 C 367.304688 263.21875 366.152344 262.066406 366.152344 260.628906 L 366.152344 258.902344 C 366.152344 257.460938 367.304688 256.308594 368.746094 256.308594 L 402.570312 256.308594 C 404.007812 256.308594 405.160156 257.460938 405.160156 258.902344 L 405.160156 260.628906 C 405.308594 261.921875 404.15625 263.21875 402.714844 263.21875 " fill-opacity="1" fill-rule="nonzero"/></g><g clip-path="url(#52ff48c59e)"><path fill="#0f0e0c" d="M 652.449219 193.410156 C 648.980469 185.640625 642.644531 179.300781 633.578125 174.550781 L 628.699219 177.574219 C 628.539062 177.722656 628.410156 177.722656 628.253906 177.722656 L 562.199219 177.722656 C 554.414062 179.882812 544.050781 184.625 538.292969 194.417969 C 535.414062 199.453125 534.421875 204.78125 534.695312 224.210938 C 534.851562 236.589844 535.570312 249.113281 536.578125 261.636719 L 555.421875 263.507812 L 559.882812 211.113281 C 559.882812 210.824219 560.039062 210.539062 560.328125 210.394531 L 596.3125 186.359375 C 596.585938 186.210938 597.03125 186.210938 597.304688 186.359375 L 629.261719 204.925781 C 629.546875 205.066406 629.691406 205.355469 629.691406 205.789062 L 630.570312 263.652344 L 650.417969 264.945312 C 652.003906 250.984375 653.296875 236.878906 654.320312 223.058594 C 655.601562 206.9375 655.757812 200.75 652.449219 193.410156 Z M 654.160156 192.691406 C 657.617188 200.316406 657.484375 206.796875 656.175781 223.058594 C 655.039062 237.167969 653.730469 251.703125 652.160156 265.953125 C 652.160156 266.386719 651.730469 266.816406 651.140625 266.816406 L 629.417969 265.378906 C 628.972656 265.378906 628.539062 264.945312 628.539062 264.515625 L 627.691406 206.21875 L 596.746094 188.226562 L 561.609375 211.6875 L 557.164062 264.65625 C 557.164062 264.945312 557.003906 265.089844 556.859375 265.234375 C 556.730469 265.378906 556.441406 265.523438 556.140625 265.378906 L 535.570312 263.363281 C 535.140625 263.363281 534.695312 262.929688 534.695312 262.5 C 533.542969 249.6875 532.980469 236.878906 532.691406 224.210938 C 532.390625 204.347656 533.414062 198.878906 536.578125 193.410156 C 542.609375 183.046875 553.5625 178.148438 561.609375 175.851562 L 627.820312 175.851562 L 633.015625 172.683594 C 633.289062 172.539062 633.578125 172.539062 634.011719 172.683594 C 643.652344 177.578125 650.417969 184.339844 654.160156 192.691406 Z M 481.726562 509.0625 C 481.4375 508.632812 481.003906 508.34375 480.285156 508.34375 L 480.15625 508.34375 C 477.566406 508.34375 471.367188 510.933594 467.484375 516.117188 C 464.605469 520.144531 464.023438 524.753906 464.023438 527.773438 C 464.023438 528.351562 464.457031 528.78125 465.035156 528.640625 C 465.609375 528.640625 466.042969 528.207031 465.898438 527.632812 C 465.898438 524.894531 466.332031 520.722656 468.921875 517.125 C 472.089844 512.660156 477.40625 510.503906 479.4375 510.214844 C 478.714844 511.078125 476.6875 513.09375 471.222656 517.410156 C 470.933594 517.699219 470.792969 517.988281 470.933594 518.417969 C 471.082031 518.707031 471.367188 518.996094 471.65625 519.140625 C 474.820312 519.859375 478.125 521.296875 478.285156 522.449219 C 478.285156 522.882812 477.566406 523.746094 475.679688 525.328125 C 473.527344 527.199219 471.367188 528.78125 469.0625 530.367188 C 468.636719 530.652344 468.488281 531.230469 468.777344 531.660156 C 468.921875 531.949219 469.210938 532.09375 469.496094 532.09375 C 469.644531 532.09375 469.929688 532.09375 470.074219 531.949219 C 472.375 530.367188 474.679688 528.640625 476.84375 526.769531 C 479.277344 524.609375 480.15625 523.601562 480.15625 522.449219 C 479.996094 520.003906 476.558594 518.5625 473.960938 517.84375 C 482.15625 511.367188 482.316406 510.070312 481.726562 509.0625 Z M 992.703125 179.015625 C 992.703125 178.582031 992.269531 178.296875 991.851562 178.148438 L 950.398438 175.5625 L 971.109375 136.269531 C 971.269531 135.980469 971.269531 135.835938 971.109375 135.546875 C 970.980469 135.261719 970.824219 135.113281 970.679688 134.96875 L 962.476562 130.796875 C 962.042969 130.648438 961.625 130.648438 961.324219 131.082031 L 934.121094 169.375 L 894.535156 163.902344 C 893.976562 163.753906 893.542969 164.1875 893.542969 164.769531 C 893.386719 165.339844 893.816406 165.773438 894.390625 165.773438 L 934.566406 171.386719 C 934.996094 171.386719 935.285156 171.246094 935.414062 170.953125 L 962.476562 132.957031 L 969.109375 136.269531 L 948.367188 175.417969 L 910.226562 171.386719 C 909.648438 171.386719 909.21875 171.671875 909.21875 172.25 C 909.21875 172.824219 909.503906 173.257812 910.097656 173.257812 L 948.957031 177.289062 L 991.132812 180.023438 L 992.570312 190.242188 L 952.398438 190.242188 L 880.863281 190.53125 C 880.300781 190.53125 879.867188 190.960938 879.867188 191.539062 C 879.867188 192.113281 880.300781 192.546875 880.863281 192.546875 L 952.398438 192.257812 L 993.710938 192.257812 C 994.011719 192.257812 994.300781 192.113281 994.429688 191.96875 C 994.574219 191.824219 994.730469 191.539062 994.730469 191.25 Z M 1023.804688 615.144531 Z M 1054.59375 669.695312 L 1065.261719 718.636719 C 1065.261719 718.921875 1065.261719 719.210938 1065.101562 719.5 C 1064.957031 719.789062 1064.671875 719.789062 1064.382812 719.789062 L 1047.828125 719.789062 C 1047.398438 719.789062 1046.964844 719.5 1046.964844 719.066406 L 1033.722656 673.296875 L 1024.957031 621.191406 L 1018.324219 664.371094 L 1020.335938 726.265625 C 1020.335938 726.550781 1020.207031 726.839844 1020.050781 726.984375 C 1019.921875 727.128906 1019.617188 727.273438 1019.328125 727.273438 L 1003.496094 727.273438 C 1003.066406 727.273438 1002.648438 726.984375 1002.488281 726.410156 L 994.140625 669.554688 L 997.179688 584.773438 C 997.179688 584.199219 997.609375 583.910156 998.171875 583.910156 C 998.746094 583.910156 999.050781 584.34375 999.050781 584.917969 L 995.867188 669.554688 L 1004.085938 725.542969 L 1018.050781 725.542969 L 1016.019531 664.515625 L 1023.648438 615.433594 L 1023.648438 601.328125 C 1023.648438 600.75 1024.078125 600.320312 1024.65625 600.320312 C 1025.246094 600.320312 1025.675781 600.75 1025.675781 601.328125 L 1025.675781 615.433594 L 1025.675781 615.289062 C 1025.675781 615 1025.519531 614.855469 1025.375 614.714844 L 1025.675781 615.289062 L 1025.675781 615.578125 L 1025.675781 615.289062 L 1035.449219 672.863281 L 1048.40625 717.917969 L 1063.101562 717.917969 L 1052.722656 669.984375 L 1049.125 586.070312 C 1049.125 585.492188 1049.558594 585.0625 1049.988281 585.0625 C 1050.5625 585.0625 1050.996094 585.492188 1050.996094 585.925781 Z M 1089.296875 582.328125 C 1089.296875 581.75 1088.707031 581.464844 1088.289062 581.464844 C 1087.699219 581.464844 1087.414062 582.039062 1087.414062 582.472656 C 1089.425781 602.476562 1087.699219 604.492188 1087.414062 604.636719 C 1087.269531 604.636719 1085.410156 604.351562 1079.652344 591.539062 C 1079.496094 591.109375 1079.0625 590.964844 1078.777344 590.964844 C 1078.34375 590.964844 1078.054688 591.25 1077.914062 591.683594 C 1077.496094 593.265625 1077.0625 594.417969 1076.773438 595.136719 C 1076.617188 593.554688 1076.472656 590.242188 1076.90625 583.191406 C 1076.90625 582.613281 1076.472656 582.183594 1076.054688 582.183594 C 1075.464844 582.039062 1075.035156 582.613281 1075.035156 583.046875 C 1074.3125 597.730469 1075.335938 597.871094 1076.34375 598.015625 C 1077.191406 598.160156 1077.914062 597.585938 1078.933594 594.5625 C 1083.539062 604.636719 1085.699219 606.652344 1087.269531 606.652344 L 1087.699219 606.652344 C 1089.730469 606.078125 1091.296875 602.765625 1089.296875 582.328125 Z M 847.484375 150.660156 C 845.886719 148.933594 843.292969 148.214844 839.695312 148.355469 C 839.121094 148.5 834.082031 149.652344 833.9375 157.136719 C 833.808594 165.773438 833.9375 177.722656 833.9375 177.859375 C 833.9375 178.292969 833.652344 178.726562 833.089844 178.867188 L 795.796875 183.332031 C 787.460938 183.480469 782.839844 183.765625 780.394531 184.050781 C 782.554688 184.484375 786.441406 184.917969 793.0625 185.636719 C 793.507812 185.636719 793.78125 186.0625 793.9375 186.496094 C 793.9375 186.929688 793.78125 187.363281 793.347656 187.503906 C 792.917969 187.648438 792.339844 187.9375 792.066406 188.082031 C 792.628906 188.082031 793.0625 187.9375 793.636719 187.9375 C 794.789062 187.796875 795.9375 187.648438 797.105469 187.503906 C 798.816406 187.363281 800.257812 187.21875 801.695312 187.21875 C 805.582031 187.21875 808.621094 187.796875 812.058594 188.515625 C 815.816406 189.238281 819.976562 190.097656 826.453125 190.386719 L 826.742188 190.386719 C 835.089844 190.671875 839.410156 190.816406 842.289062 188.371094 C 844.316406 186.644531 844.605469 184.625 847.035156 169.804688 C 849.050781 156.132812 849.484375 152.820312 847.484375 150.660156 Z M 830.929688 141.875 C 829.492188 141.738281 827.332031 141.15625 825.445312 139.429688 C 824.453125 138.566406 823.734375 137.417969 823.144531 136.265625 L 823.144531 135.980469 C 823.144531 135.6875 822.855469 134.246094 821.574219 133.242188 C 820.136719 132.234375 818.695312 132.667969 818.25 132.808594 C 816.535156 133.960938 813.789062 135.398438 810.1875 135.832031 C 807.453125 136.121094 805.152344 135.6875 803.292969 135.113281 C 803.855469 137.707031 804.863281 140.152344 806.460938 142.308594 C 807.613281 144.035156 810.1875 147.496094 814.9375 148.640625 C 818.539062 149.507812 821.847656 148.5 823.445312 147.78125 C 823.574219 147.78125 823.734375 147.632812 823.863281 147.632812 C 824.007812 147.632812 824.164062 147.632812 824.296875 147.78125 C 824.582031 147.921875 824.726562 148.214844 824.726562 148.355469 L 826.324219 155.265625 C 827.605469 155.117188 829.492188 154.691406 830.929688 153.105469 C 833.089844 150.660156 833.21875 145.910156 830.929688 141.875 Z M 848.765625 149.359375 C 851.511719 152.238281 850.921875 156.417969 848.636719 169.945312 C 846.042969 185.34375 845.597656 187.503906 843.164062 189.523438 C 840.71875 191.679688 837.679688 192.257812 832.929688 192.257812 C 831.058594 192.257812 828.902344 192.113281 826.324219 192.113281 L 826.023438 192.113281 C 819.414062 191.824219 815.097656 190.960938 811.339844 190.242188 C 806.734375 189.238281 803.292969 188.515625 797.105469 189.238281 C 795.941406 189.375 794.789062 189.523438 793.636719 189.664062 C 789.320312 190.242188 787.75 190.527344 787.460938 189.238281 C 787.304688 188.515625 787.589844 187.9375 789.1875 187.21875 C 775.644531 185.777344 775.644531 185.058594 775.644531 184.050781 C 775.644531 182.898438 775.789062 182.039062 795.507812 181.605469 L 831.921875 177.289062 C 831.921875 174.410156 831.78125 164.621094 831.921875 157.277344 C 831.921875 156.132812 832.082031 155.117188 832.371094 154.113281 C 832.210938 154.257812 832.082031 154.542969 831.921875 154.691406 C 829.765625 156.992188 826.742188 157.277344 825.171875 157.421875 C 824.726562 157.421875 824.296875 157.136719 824.296875 156.703125 L 822.855469 150.078125 C 820.695312 150.800781 817.6875 151.378906 814.21875 150.511719 C 808.75 149.21875 805.871094 145.1875 804.574219 143.464844 C 802.574219 140.722656 801.265625 137.273438 800.832031 133.820312 C 800.832031 133.527344 800.976562 133.101562 801.265625 132.953125 C 801.554688 132.808594 801.855469 132.667969 802.144531 132.808594 C 803.710938 133.527344 806.460938 134.246094 809.613281 133.960938 C 812.9375 133.675781 815.371094 132.234375 816.96875 131.226562 C 816.96875 131.226562 817.097656 131.082031 817.257812 131.082031 C 817.6875 130.941406 820.136719 130.222656 822.425781 131.660156 C 824.296875 132.953125 824.726562 134.828125 824.886719 135.546875 C 825.300781 136.550781 825.894531 137.273438 826.613281 137.992188 C 828.324219 139.578125 830.339844 139.863281 831.492188 140.003906 C 831.78125 140.003906 832.082031 140.152344 832.210938 140.4375 C 834.082031 143.464844 834.800781 146.773438 834.242188 149.792969 C 836.398438 146.914062 839.410156 146.480469 839.410156 146.480469 L 839.566406 146.480469 C 843.726562 146.34375 846.761719 147.199219 848.765625 149.359375 Z M 381.128906 529.785156 L 381.128906 543.316406 C 381.128906 543.890625 381.558594 544.324219 382.132812 544.324219 C 382.707031 544.324219 383.140625 543.890625 383.140625 543.316406 L 383.140625 529.210938 C 383.140625 528.777344 382.851562 528.492188 382.566406 528.347656 C 380.839844 527.625 379.6875 525.898438 379.972656 524.171875 C 380.121094 522.878906 381.128906 521.726562 382.417969 521.148438 C 385.730469 520.71875 388.898438 519.710938 391.777344 518.128906 C 395.375 516.113281 397.964844 513.519531 399.691406 511.21875 C 399.839844 512.65625 399.839844 513.953125 399.839844 515.390625 C 399.980469 523.164062 399.980469 527.339844 397.390625 530.363281 C 396.242188 531.800781 394.511719 532.808594 392.355469 533.527344 C 391.921875 533.671875 391.632812 533.960938 391.632812 534.390625 L 391.632812 543.460938 C 391.632812 544.035156 392.0625 544.46875 392.640625 544.46875 C 393.214844 544.46875 393.648438 544.035156 393.648438 543.460938 L 393.648438 535.113281 C 395.808594 534.390625 397.53125 533.097656 398.832031 531.65625 C 401.996094 527.914062 401.996094 522.878906 401.851562 515.390625 C 401.851562 513.089844 401.710938 510.785156 401.417969 508.484375 C 401.417969 508.050781 401.132812 507.761719 400.699219 507.621094 C 400.269531 507.476562 399.839844 507.761719 399.691406 508.050781 C 398.253906 510.5 395.519531 514.097656 390.914062 516.542969 C 388.175781 517.984375 385.296875 518.992188 382.132812 519.421875 L 381.847656 519.421875 C 379.828125 520.140625 378.386719 522.011719 378.101562 524.027344 C 377.527344 526.1875 378.820312 528.492188 381.128906 529.785156 Z M 587.390625 83.726562 L 585.792969 96.394531 C 585.792969 96.964844 586.078125 97.398438 586.667969 97.398438 C 587.085938 97.398438 587.675781 97.113281 587.675781 96.53125 L 589.246094 83.292969 C 589.246094 83.003906 589.117188 82.570312 588.957031 82.425781 C 587.390625 81.28125 586.078125 79.691406 585.359375 78.105469 C 581.917969 71.488281 585.648438 63.859375 587.085938 61.128906 C 589.964844 63.574219 592.988281 65.734375 596.3125 67.605469 C 599.191406 69.183594 602.199219 70.484375 605.382812 71.488281 C 605.667969 73.648438 605.511719 75.808594 604.789062 77.679688 C 603.785156 80.984375 601.914062 83.144531 600.472656 84.296875 C 600.183594 84.445312 600.183594 84.730469 600.183594 85.015625 L 600.761719 96.394531 C 600.761719 96.964844 601.191406 97.253906 601.78125 97.253906 C 602.34375 97.253906 602.632812 96.820312 602.632812 96.246094 L 602.070312 85.304688 C 603.640625 83.863281 605.511719 81.566406 606.664062 78.105469 C 607.382812 75.660156 607.667969 72.929688 607.238281 70.335938 C 607.238281 70.050781 606.949219 69.765625 606.664062 69.617188 C 603.511719 68.613281 600.34375 67.3125 597.464844 65.585938 C 593.996094 63.714844 590.683594 61.269531 587.804688 58.675781 C 587.675781 58.535156 587.390625 58.390625 587.085938 58.390625 C 586.800781 58.390625 586.511719 58.535156 586.367188 58.820312 C 585.648438 59.976562 579.3125 69.902344 583.921875 78.6875 C 584.511719 80.847656 585.792969 82.425781 587.390625 83.726562 Z M 408.90625 687.828125 L 402.855469 633.707031 C 395.808594 631.40625 388.464844 630.109375 381.128906 629.820312 C 372.628906 629.390625 364.285156 630.253906 356.078125 632.269531 L 355.21875 695.027344 L 344.5625 745.835938 L 358.097656 745.835938 L 371.910156 702.222656 C 372.34375 700.207031 381.414062 651.125 382.132812 648.679688 C 382.277344 648.246094 382.851562 647.8125 383.285156 647.957031 C 383.71875 648.101562 384.144531 648.679688 384.003906 649.109375 C 383.859375 649.828125 382.851562 654.433594 381.699219 660.914062 L 388.898438 690.707031 L 388.898438 752.457031 L 400.699219 752.457031 Z M 404.730469 632.988281 L 410.773438 687.828125 L 410.773438 688.117188 L 402.570312 753.609375 C 402.570312 754.039062 402.136719 754.472656 401.566406 754.472656 L 387.890625 754.472656 C 387.316406 754.472656 386.882812 754.039062 386.882812 753.464844 L 386.882812 691.140625 L 380.40625 665.664062 C 378.25 677.320312 375.222656 692.722656 373.351562 702.796875 L 359.390625 747.273438 C 359.25 747.707031 358.957031 747.996094 358.527344 747.996094 L 343.414062 747.996094 C 343.125 747.996094 342.835938 747.851562 342.695312 747.707031 C 342.550781 747.417969 342.402344 747.132812 342.550781 746.988281 L 353.492188 695.167969 L 354.351562 631.980469 C 354.351562 631.550781 354.636719 631.117188 355.070312 631.117188 C 363.707031 628.816406 372.492188 627.949219 381.414062 628.382812 C 389.183594 628.816406 396.8125 630.253906 404.15625 632.558594 C 404.445312 632.269531 404.589844 632.558594 404.730469 632.988281 Z M 340.679688 630.398438 C 339.957031 631.261719 339.238281 632.125 338.664062 633.132812 C 336.9375 635.722656 336.359375 638.027344 335.785156 639.609375 C 335.351562 641.050781 335.066406 642.058594 334.058594 642.058594 C 333.769531 642.058594 333.480469 641.914062 333.195312 641.625 C 331.902344 640.1875 331.320312 633.566406 331.46875 628.238281 C 331.609375 624.640625 332.1875 621.042969 333.195312 617.445312 C 333.339844 617.011719 333.914062 616.578125 334.347656 616.722656 C 334.921875 616.867188 335.207031 617.445312 335.066406 617.875 C 334.199219 621.328125 333.628906 624.785156 333.480469 628.238281 C 333.195312 632.84375 333.769531 636.875 334.199219 638.890625 C 334.632812 637.308594 335.5 634.859375 337.226562 632.125 C 338.085938 630.6875 339.238281 629.390625 340.390625 628.09375 C 340.539062 627.949219 340.964844 627.808594 341.257812 627.808594 C 341.542969 627.808594 341.832031 628.09375 341.976562 628.238281 C 342.695312 629.535156 343.125 630.109375 343.414062 630.542969 C 343.703125 629.535156 343.84375 626.800781 342.835938 618.453125 C 342.835938 617.875 343.125 617.445312 343.703125 617.445312 C 344.277344 617.300781 344.710938 617.730469 344.710938 618.308594 C 346.292969 631.117188 345.28125 632.414062 343.988281 632.84375 C 342.550781 632.988281 341.683594 631.980469 340.679688 630.398438 " fill-opacity="1" fill-rule="nonzero"/></g><path fill="#7d9cec" d="M 1023.804688 494.8125 C 1019.199219 495.820312 1010.851562 496.828125 1000.90625 494.667969 C 989.980469 492.222656 982.339844 486.898438 978.59375 483.875 L 997.179688 453.648438 L 985.074219 445.300781 C 976.019531 453.648438 970.101562 461.707031 966.503906 467.609375 C 960.90625 476.390625 957.867188 481.140625 958.746094 487.328125 C 959.753906 495.101562 966.230469 500.140625 972.980469 505.175781 C 977.300781 508.488281 985.074219 513.523438 996.585938 516.261719 C 997.179688 539.144531 997.738281 562.175781 998.457031 585.0625 C 1004.9375 587.078125 1014.292969 589.09375 1025.675781 589.234375 C 1037.480469 589.234375 1047.269531 587.078125 1053.875 585.0625 L 1053.875 526.046875 C 1056.625 527.199219 1061.070312 529.503906 1065.261719 534.109375 C 1068.988281 538.136719 1070.859375 542.023438 1072.023438 544.761719 C 1072.875 557.570312 1073.738281 570.523438 1074.617188 583.335938 L 1091.167969 582.613281 C 1091.011719 578.007812 1090.738281 571.53125 1089.859375 563.757812 C 1087.988281 547.78125 1086.261719 533.101562 1077.191406 518.5625 C 1073.304688 512.230469 1068.269531 504.167969 1058.0625 499.132812 C 1048.550781 494.527344 1039.480469 494.8125 1034.875 495.246094 C 1034.011719 497.691406 1031.566406 499.277344 1029.117188 499.132812 C 1026.527344 498.554688 1024.527344 496.972656 1023.804688 494.8125 Z M 392.484375 543.175781 L 428.902344 555.410156 L 464.164062 527.054688 L 470.789062 531.804688 C 464.453125 541.449219 458.410156 549.078125 453.804688 554.691406 C 444.585938 565.628906 440.5625 568.507812 435.664062 569.660156 C 432.785156 570.378906 429.335938 570.09375 422.425781 569.660156 C 415.660156 569.230469 410.042969 568.507812 406.015625 567.789062 C 405.152344 577.433594 404.71875 587.796875 404.71875 598.878906 C 404.71875 610.972656 405.152344 622.34375 406.015625 632.707031 C 397.808594 633.136719 388.886719 633.28125 379.386719 632.992188 C 370.894531 632.707031 362.835938 632.128906 355.347656 631.410156 C 356.644531 623.0625 357.652344 613.847656 358.085938 603.628906 C 358.515625 593.84375 358.371094 584.917969 357.796875 576.859375 C 354.054688 583.480469 350.167969 590.101562 346.421875 596.578125 L 345.128906 618.167969 L 332.75 617.59375 C 332.464844 609.820312 333.183594 598.59375 337.355469 585.78125 C 344.125 565.34375 356.359375 552.246094 362.976562 546.054688 L 382.121094 543.320312 C 382.265625 543.609375 383.996094 545.910156 387.160156 546.054688 C 390.324219 546.054688 392.34375 543.464844 392.484375 543.175781 " fill-opacity="1" fill-rule="nonzero"/></svg>