<svg width="795" height="76" viewBox="0 0 795 76" fill="none" xmlns="http://www.w3.org/2000/svg">
<path d="M63.9373 74.4187H69.4933V0.944064H62.576L34.8 43.7614L6.70934 0.944064C3.98401 0.944064 2.72667 0.944064 0 0.944064V74.4187H5.66134V9.13739L33.96 52.1627H35.8467L63.9373 9.13739V74.4187" fill="#040606"/>
<path d="M91.1894 6.28938H136.259V0.944064H85.6348V6.28938H91.1894ZM85.6348 34.9041V40.0387H134.163V34.9041H91.1894H85.6348ZM85.6348 68.9681V74.4187H137.517V68.9681H128.299H91.1894H85.6348Z" fill="#040606"/>
<path d="M175.142 74.4187H180.802V6.18537H207.321V1.15337H148.625V6.18537H175.142V74.4187" fill="#040606"/>
<path d="M354.795 74.4187H360.351V0.944061H353.433L325.657 43.7614L297.567 0.944061C294.843 0.944061 293.584 0.944061 290.857 0.944061V74.4187H296.519V9.13739L324.817 52.1627H326.704L354.795 9.13739V74.4187Z" fill="#040606"/>
<path d="M450.488 0.944064V74.4187H456.147V13.7494L505.62 74.4187H507.82V0.944064H502.266V61.7174L452.9 0.944064H450.488Z" fill="#040606"/>
<path d="M655.714 11.0067C648.273 3.66934 638.522 -3.9304e-06 628.881 -3.9304e-06C606.555 -3.9304e-06 590.939 14.9893 591.043 37.9427C591.043 57.9627 603.935 75.3613 628.881 75.3613C639.782 75.3613 648.901 71.168 656.551 63.5187V36.0573H625.633V40.9826H651.206V61.5267C644.917 67.292 636.742 70.016 628.881 70.016C607.499 70.016 596.494 55.132 596.494 37.8387C596.389 20.8587 607.394 5.13733 628.881 5.13733C637.162 5.13733 646.072 8.28133 652.465 14.5693L655.714 11.0067Z" fill="#040606"/>
<path d="M768.912 46.328C784.949 46.328 792.809 35.8294 792.705 23.8454C792.601 12.3867 784.529 0.944064 768.599 0.944064C757.801 0.944064 747.112 0.944064 736.314 0.944064V74.4187H741.974V46.6427H761.994L787.358 74.4187H794.801L768.912 46.328ZM741.974 6.18537H768.599C780.756 6.18537 786.626 15.1121 786.522 23.7414C786.416 34.0481 780.756 41.2974 767.969 41.2974H741.974V6.18537" fill="#040606"/>
<path d="M677.41 6.28938H722.479V0.944064H671.855V6.28938H677.41ZM671.855 34.9041V40.0387H720.383V34.9041H677.41H671.855ZM671.855 68.9681V74.4187H723.738V68.9681H714.521H677.41H671.855Z" fill="#040606"/>
<path d="M588.634 74.4187L555.72 0.944064H549.536L516.627 74.4187H522.704C541.256 32.432 529.078 59.7627 552.576 6.41206C577.542 63.0934 562.634 29.92 582.554 74.4187H588.634Z" fill="#040606"/>
<path fill-rule="evenodd" clip-rule="evenodd" d="M564.921 74.4187L552.63 46.5134L540.34 74.4187H564.921Z" fill="#040606"/>
<path d="M440.952 74.4187L408.04 0.944064H401.856L368.945 74.4187H375.024C393.576 32.432 381.397 59.7627 404.896 6.41206C429.86 63.0934 414.953 29.92 434.872 74.4187H440.952Z" fill="#040606"/>
<path fill-rule="evenodd" clip-rule="evenodd" d="M417.24 74.4187L404.949 46.5134L392.658 74.4187H417.24Z" fill="#040606"/>
<path d="M282.472 74.4187L249.56 0.944064H243.377L210.467 74.4187H216.545C235.096 32.432 222.917 59.7627 246.416 6.41206C271.383 63.0934 256.473 29.92 276.393 74.4187H282.472" fill="#040606"/>
<path fill-rule="evenodd" clip-rule="evenodd" d="M258.761 74.4187L246.47 46.5134L234.18 74.4187H258.761Z" fill="#040606"/>
</svg>
